<svg width="332" height="238" viewBox="0 0 332 238" fill="none" xmlns="http://www.w3.org/2000/svg">
<g opacity="0.6" clip-path="url(#clip0_3_4964)">
<path d="M140.742 77.4883C139.234 78.9978 138.229 80.2557 137.726 82.52C137.223 84.5327 136.721 86.5454 137.726 88.3065C137.726 88.558 138.229 88.558 138.229 88.3065C138.731 86.5454 138.731 84.7843 138.983 83.2747C139.234 81.5136 139.988 79.2494 140.742 77.4883Z" fill="#7F0E36" fill-opacity="0.5"/>
<path d="M138.229 89.313C140.491 92.8352 143.255 95.351 147.025 96.8606C149.538 97.8669 153.559 99.8796 156.073 98.1185C156.324 97.8669 156.324 97.3637 156.073 97.1121C154.313 95.0995 150.041 95.0995 147.528 94.3447C144.26 93.0868 141.245 91.3257 138.229 89.313Z" fill="#7F0E36" fill-opacity="0.5"/>
<path d="M140.239 77.9915C143.506 78.7463 146.774 81.2622 149.79 82.7717C152.805 84.2812 155.57 85.7907 158.586 87.3002C159.089 87.5518 159.591 86.797 159.089 86.2939C155.319 84.2812 151.549 82.5201 147.779 80.5074C145.517 79.5011 143.004 77.4884 140.239 77.9915Z" fill="#7F0E36" fill-opacity="0.5"/>
<path d="M159.34 86.7971C159.34 90.5708 158.083 95.6026 154.565 97.6152C153.308 98.37 154.816 100.131 155.821 98.8732C157.078 97.1121 158.586 95.351 159.34 93.3383C160.094 91.3256 160.345 89.0613 160.345 86.7971C160.345 86.2939 159.34 86.2939 159.34 86.7971Z" fill="#7F0E36" fill-opacity="0.5"/>
<path d="M138.731 92.0803C143.004 104.156 156.575 114.975 169.896 113.717C170.147 113.717 170.398 112.962 169.896 112.962C155.821 110.949 145.266 105.163 139.234 91.8287C139.234 91.3255 138.731 91.5771 138.731 92.0803Z" fill="#7F0E36" fill-opacity="0.5"/>
<path d="M166.88 113.968C172.157 115.981 177.687 117.742 182.462 121.013C186.232 123.529 189.248 128.057 193.52 129.818C194.023 130.07 194.525 129.315 194.525 128.812C193.269 124.032 187.237 120.509 183.216 118.245C178.189 115.478 172.911 113.465 167.131 113.465C166.88 113.465 166.88 113.968 166.88 113.968Z" fill="#7F0E36" fill-opacity="0.5"/>
<path d="M194.023 129.567C201.06 137.869 211.867 141.14 222.422 141.894V141.643C211.867 140.636 203.07 135.353 194.023 129.567C194.023 129.567 194.023 129.315 194.023 129.567Z" fill="#7F0E36" fill-opacity="0.5"/>
<path d="M192.766 125.038C194.274 128.057 196.787 130.321 199.552 132.082C199.803 132.334 200.054 131.831 199.803 131.579C197.793 129.063 195.782 126.548 193.269 124.535C193.017 124.032 192.515 124.535 192.766 125.038Z" fill="#7F0E36" fill-opacity="0.5"/>
<path d="M192.766 125.541C194.525 130.825 199.552 134.85 204.578 136.863C204.83 137.114 205.081 136.36 204.83 136.36C202.568 134.85 200.306 133.089 198.295 131.076C196.536 129.315 195.028 127.302 193.269 125.29C193.269 125.038 192.766 125.29 192.766 125.541Z" fill="#7F0E36" fill-opacity="0.5"/>
<path d="M156.827 85.0359C168.89 88.8097 179.697 94.3446 191.761 98.3699C198.044 100.383 204.578 100.383 210.861 102.144C217.145 104.156 222.422 107.93 228.454 110.194C228.957 110.446 229.208 109.691 228.957 109.44C224.936 105.917 219.658 102.898 214.631 101.137C207.594 98.6215 200.055 99.1247 193.017 97.3636C180.954 94.093 169.644 85.5391 156.827 85.0359C156.827 85.0359 156.827 84.7843 156.827 85.0359Z" fill="#7F0E36" fill-opacity="0.5"/>
<path d="M198.295 59.6257C198.044 59.8773 197.793 60.1289 197.541 60.3805C197.541 60.3805 197.541 60.6321 197.541 60.3805C198.044 60.3805 198.044 60.1289 198.295 59.6257C198.295 59.6257 198.547 59.8773 198.295 59.6257Z" fill="#7F0E36" fill-opacity="0.5"/>
<path d="M198.547 61.1352C192.012 60.6321 184.724 62.8963 178.189 64.4059C171.403 65.9154 164.618 66.9217 158.335 69.6892C157.832 69.9407 158.083 70.4439 158.586 70.4439C165.372 69.9407 172.157 67.9281 178.943 66.4185C185.226 64.909 192.766 64.4059 198.547 61.1352Z" fill="#7F0E36" fill-opacity="0.5"/>
<path d="M165.623 67.6765C161.602 68.6829 158.083 69.4376 154.565 71.7019C151.046 73.7146 148.282 76.482 145.517 79.501C145.014 80.2558 146.02 81.2621 146.522 80.5074C151.297 74.9725 158.586 70.1924 165.623 67.6765Z" fill="#7F0E36" fill-opacity="0.5"/>
<path d="M137.726 89.8162C137.977 89.8162 137.977 89.5646 137.726 89.8162C137.726 89.5646 137.726 89.8162 137.726 89.8162Z" fill="#7F0E36" fill-opacity="0.5"/>
<path d="M137.977 89.5646C138.229 89.5646 138.229 89.5646 137.977 89.5646C138.229 89.5646 138.229 89.5646 138.229 89.5646C138.48 89.0614 138.48 89.313 138.229 88.8098C138.229 88.8098 138.229 88.8098 137.977 88.8098C136.972 88.8098 136.721 89.313 136.218 90.0677C134.71 92.332 133.705 94.5963 132.197 96.8606C128.678 101.641 124.657 104.66 120.133 108.182C119.882 108.433 120.133 108.685 120.385 108.685C124.406 106.924 128.427 103.402 131.192 100.131C132.448 98.8732 138.229 89.313 137.977 89.5646C137.977 89.5646 137.977 89.313 137.977 89.5646Z" fill="#7F0E36" fill-opacity="0.5"/>
<path d="M119.379 108.433C119.379 107.427 121.139 105.666 121.893 104.911C122.898 103.905 123.903 102.898 125.16 102.144C126.919 100.886 129.432 100.131 130.94 98.6215C131.192 98.37 130.94 97.8668 130.689 98.1184C127.924 98.1184 115.358 107.679 118.877 109.691C119.128 109.691 119.379 109.691 119.631 109.691C120.133 109.44 120.385 109.188 120.133 108.433C119.882 107.679 119.379 107.93 119.379 108.433Z" fill="#7F0E36" fill-opacity="0.5"/>
<path d="M135.715 87.3002C133.202 90.8224 131.192 94.5961 129.181 98.3699C128.93 98.8731 129.684 99.3763 129.935 98.8731C132.448 95.3509 134.961 91.8287 136.972 88.0549C137.223 87.0486 136.218 86.5454 135.715 87.3002Z" fill="#7F0E36" fill-opacity="0.5"/>
<path d="M120.133 107.93C121.893 112.71 133.956 116.232 136.972 111.452C137.223 111.201 136.972 110.446 136.469 110.446C133.956 109.943 131.443 111.452 128.678 111.452C126.919 111.201 125.411 110.949 123.903 110.194C122.646 109.44 121.641 108.433 120.133 107.93C120.133 107.93 120.385 107.679 120.133 107.93Z" fill="#7F0E36" fill-opacity="0.5"/>
<path d="M134.207 112.71C136.972 112.207 138.983 110.698 141.244 108.937C143.004 107.427 146.02 105.414 146.522 103.15C146.522 102.647 146.271 102.395 145.768 102.647C143.758 103.653 141.998 105.918 140.239 107.427C138.229 109.188 135.967 110.446 133.956 112.459C133.956 112.71 134.207 112.71 134.207 112.71Z" fill="#7F0E36" fill-opacity="0.5"/>
<path d="M164.366 87.5517C201.814 59.3741 239.261 30.6933 276.457 2.01259C277.463 1.25783 276.457 -0.503268 275.452 0.251489C237.502 28.1775 200.306 56.8583 163.864 86.7969C163.612 87.3001 164.115 87.8033 164.366 87.5517Z" fill="#7F0E36" fill-opacity="0.5"/>
<path d="M276.709 0.503173C280.478 2.51586 282.489 6.54123 282.74 10.5666C282.74 12.0761 285.002 12.0761 285.002 10.5666C285.254 8.05074 284.248 5.53489 282.74 3.5222C280.981 1.7611 279.222 0.754759 276.709 0.503173C276.709 0.503173 276.709 0.251588 276.709 0.503173Z" fill="#7F0E36" fill-opacity="0.5"/>
<path d="M175.676 90.0677C185.478 85.0359 194.777 77.74 203.824 71.1987C213.123 64.6575 222.171 58.1163 231.47 51.3235C249.063 38.4926 266.404 25.1586 283.494 11.5729C284.5 10.8182 282.992 9.56025 282.238 10.315C264.142 24.6554 245.796 38.4926 227.449 52.0782C218.653 58.6194 209.856 64.6575 200.808 70.9471C192.263 76.9852 182.964 82.2685 175.173 89.0613C174.671 89.5645 175.173 90.3192 175.676 90.0677Z" fill="#7F0E36" fill-opacity="0.5"/>
<path d="M250.822 20.63C253.335 21.3848 255.849 21.1332 257.608 23.649C259.116 25.9133 259.116 28.4292 258.613 30.945C258.362 31.6998 259.618 32.4545 260.121 31.4482C261.88 28.6808 261.378 24.6554 259.367 22.1395C257.608 19.8753 253.838 17.8626 250.822 19.1205C250.068 19.6237 250.319 20.3784 250.822 20.63Z" fill="#7F0E36" fill-opacity="0.5"/>
<path d="M132.951 111.704C109.578 125.038 87.9636 142.649 66.601 158.751C45.2384 174.6 24.8811 190.954 4.27251 207.307C3.26721 208.061 4.77516 209.571 5.52913 208.565C26.6404 190.954 48.5057 174.097 70.6222 157.744C91.2309 142.398 113.599 128.56 133.453 112.207C133.705 111.956 133.453 111.452 132.951 111.704Z" fill="#7F0E36" fill-opacity="0.5"/>
<path d="M6.0318 206.552C2.76457 208.061 1.0053 210.326 8.88433e-07 214.099C-0.251324 214.854 0.753975 215.357 1.25662 214.854C16.5874 202.778 33.6775 192.211 50.0136 181.393C57.5534 176.361 64.8418 171.33 72.1302 166.298C79.4186 161.266 87.7123 156.738 93.9955 150.448C94.4981 149.945 93.9955 149.442 93.2415 149.693C84.4451 153.719 76.4027 160.512 68.6117 166.046C60.5693 171.833 52.5269 177.368 44.4845 183.154C36.9447 188.689 29.1537 193.972 21.3626 199.507C17.0901 202.526 12.8176 205.294 8.54504 208.313C7.79107 208.816 2.76457 212.087 2.76457 212.338C2.0106 210.829 5.78047 207.558 6.28312 207.055C6.53444 206.803 6.28312 206.552 6.0318 206.552Z" fill="#7F0E36" fill-opacity="0.5"/>
<path d="M90.4769 152.209C96.5087 150.448 101.535 145.668 106.562 141.894C111.588 138.121 116.866 134.598 122.144 130.825C132.448 123.529 142.501 115.478 152.303 107.427C153.057 106.672 152.051 105.163 151.046 105.918C140.993 113.717 130.689 121.264 120.636 128.812C115.358 132.837 109.829 136.863 104.3 140.888C99.5246 144.159 93.7441 146.926 90.2256 151.706C90.2256 151.958 90.4769 152.209 90.4769 152.209Z" fill="#7F0E36" fill-opacity="0.5"/>
<path d="M295.307 27.6745C277.965 39.2474 260.875 51.072 243.785 63.1481C228.203 74.2178 211.615 85.036 197.29 97.8669C196.285 98.6216 197.541 100.131 198.547 99.628C215.134 89.313 230.465 76.2305 246.047 64.6576C262.383 52.3299 278.719 40.2538 295.558 28.6808C296.312 28.1777 295.809 27.1713 295.307 27.6745Z" fill="#7F0E36" fill-opacity="0.5"/>
<path d="M294.553 28.6808C297.317 30.1903 300.333 31.6998 302.092 34.7188C302.846 35.9767 303.349 37.4863 303.349 39.2474C303.349 40.2537 303.098 41.0085 303.6 41.7632C303.6 42.0148 304.103 42.0148 304.354 42.0148C306.616 40.2537 305.36 36.4799 304.103 34.4672C302.092 31.1966 298.574 29.1839 295.307 27.4228C294.553 26.6681 293.799 28.1776 294.553 28.6808Z" fill="#7F0E36" fill-opacity="0.5"/>
<path d="M304.103 41.0084C296.061 44.0274 288.521 49.3107 280.981 53.5877C272.687 58.3678 264.645 63.6511 256.351 68.6828C248.058 73.7145 240.266 79.2494 232.224 84.7843C224.936 89.816 217.145 94.3446 210.61 100.131C209.605 100.886 210.861 102.395 211.867 101.892C219.658 97.112 226.695 90.8224 234.235 85.7906C241.774 80.7589 249.565 75.4756 257.105 70.4439C264.394 65.6638 271.933 61.3868 279.473 56.6067C287.515 51.575 296.563 47.5496 304.103 41.7632C304.606 41.5116 304.354 40.7568 304.103 41.0084Z" fill="#7F0E36" fill-opacity="0.5"/>
<path d="M269.42 47.5497C272.939 49.5624 273.944 53.5877 272.939 57.3615C272.687 58.871 274.698 59.6258 275.452 58.1163C277.211 53.5877 274.447 48.3044 270.425 46.0402C269.42 45.0338 268.415 46.7949 269.42 47.5497Z" fill="#7F0E36" fill-opacity="0.5"/>
<path d="M175.676 115.226C121.893 151.455 65.8471 184.161 10.807 218.125C9.80167 218.88 10.807 220.641 11.8123 219.886C68.109 187.431 121.892 151.455 176.43 116.233C177.184 115.981 176.43 114.723 175.676 115.226Z" fill="#7F0E36" fill-opacity="0.5"/>
<path d="M10.807 218.879C9.55034 219.886 8.79637 221.144 8.54504 222.653C8.54504 222.905 8.54504 223.408 8.79637 223.408C10.3043 224.414 12.3149 224.666 14.0742 223.66C14.8282 223.156 14.0742 221.898 13.3202 222.402C12.0636 223.156 10.5556 222.905 9.55034 222.15C9.55034 222.402 9.80167 222.653 9.80167 222.905C10.053 221.647 10.807 220.641 11.5609 219.634C11.8123 219.383 11.3096 218.376 10.807 218.879Z" fill="#7F0E36" fill-opacity="0.5"/>
<path d="M5.27782 207.81C1.50795 208.564 0 212.59 0 216.112C0 216.615 0.753974 217.118 1.25662 216.867C11.0583 209.571 21.1113 202.778 29.9076 194.224C30.159 193.972 29.9076 193.469 29.405 193.721C19.352 200.514 10.053 208.313 0.251325 215.609C0.753974 215.86 1.0053 216.112 1.50795 216.364C1.50795 212.338 3.51855 211.08 5.27782 208.313C5.52914 208.061 5.52914 207.81 5.27782 207.81Z" fill="#7F0E36" fill-opacity="0.5"/>
<path d="M185.729 119.755C157.581 137.869 128.176 154.474 99.5246 171.581C70.6222 188.941 41.9712 206.049 12.8176 223.156C11.5609 223.911 12.8176 225.672 13.8229 224.918C42.9765 208.061 71.8789 191.205 100.781 173.846C129.684 156.486 157.832 138.372 186.734 121.264C187.991 120.761 186.986 119 185.729 119.755Z" fill="#7F0E36" fill-opacity="0.5"/>
<path d="M221.668 59.1227C221.166 58.6195 220.914 58.8711 220.412 59.3742C220.16 59.6258 220.16 60.3806 220.663 60.6322C221.92 61.3869 223.679 61.3869 225.187 61.6385C226.946 61.8901 228.454 62.1417 230.213 62.3933C231.219 62.3933 231.47 60.8838 230.465 60.6322C228.454 60.129 226.192 59.8774 224.182 59.6258C223.428 59.6258 222.422 59.3742 221.668 59.1227C221.166 59.1227 220.914 59.1227 220.663 59.1227C220.914 59.1227 220.914 59.1227 221.166 59.3742H221.417C221.668 59.3742 221.92 59.3742 221.668 59.1227Z" fill="#7F0E36" fill-opacity="0.5"/>
<path d="M230.967 61.8901C231.47 63.3996 232.224 64.9091 233.229 66.4187C233.983 67.6766 234.486 69.4377 235.994 70.1924C236.245 70.444 236.748 70.1924 236.497 69.9409C236.497 68.4313 235.24 67.1734 234.486 65.9155C233.481 64.406 232.727 63.148 231.47 61.8901C231.219 61.3869 230.716 61.6385 230.967 61.8901Z" fill="#7F0E36" fill-opacity="0.5"/>
<path d="M240.769 81.2622C253.335 98.1185 257.105 123.277 274.447 136.359C275.452 137.114 276.457 135.605 275.703 134.85C267.912 126.799 262.383 118.245 257.357 108.182C252.833 98.8732 248.56 89.313 242.277 80.759C241.523 79.5011 240.015 80.2559 240.769 81.2622Z" fill="#7F0E36" fill-opacity="0.5"/>
<path d="M275.201 135.353C283.494 143.907 295.307 150.448 305.36 156.989C312.648 161.769 322.198 170.323 331.749 168.059C332.503 167.808 332.251 167.053 331.497 166.801C309.632 164.789 293.799 145.165 275.703 134.85C275.201 134.598 274.949 135.101 275.201 135.353Z" fill="#7F0E36" fill-opacity="0.5"/>
<path d="M271.431 134.095C272.687 136.108 274.447 138.12 275.955 139.882C277.463 141.391 279.222 143.152 281.232 143.907C281.735 144.159 281.986 143.655 281.735 143.152C280.73 141.14 278.97 139.63 277.211 137.869C275.452 136.359 273.944 134.598 271.933 133.34C271.682 133.089 271.179 133.592 271.431 134.095Z" fill="#7F0E36" fill-opacity="0.5"/>
<path d="M273.441 134.85C275.452 137.869 277.714 140.133 280.478 142.649C282.74 144.662 285.505 147.429 288.521 147.932C289.023 147.932 289.526 147.429 289.275 146.926C287.767 144.159 284.248 142.146 281.735 140.385C278.97 138.372 276.457 136.359 273.693 134.347C273.441 134.347 273.19 134.598 273.441 134.85Z" fill="#7F0E36" fill-opacity="0.5"/>
<path d="M285.254 145.416C289.526 149.19 294.05 151.706 299.076 154.222C303.852 156.738 308.627 160.008 313.653 161.77C314.156 161.77 314.407 161.266 314.156 161.015C309.883 157.744 304.606 155.48 300.082 152.712C295.307 149.945 290.783 146.926 285.756 144.913C285.254 144.662 285.002 145.165 285.254 145.416Z" fill="#7F0E36" fill-opacity="0.5"/>
<path d="M125.914 128.057C124.908 131.076 124.154 134.347 123.652 137.617C124.154 134.347 124.908 131.328 126.165 128.309C126.668 127.806 126.165 127.806 125.914 128.057Z" fill="#7F0E36" fill-opacity="0.5"/>
<path d="M124.657 129.567C123.652 132.586 123.652 135.856 123.149 138.875C123.149 139.127 123.652 139.378 123.652 139.127C124.154 136.108 125.411 133.089 125.411 129.818C125.411 129.063 124.657 129.063 124.657 129.567Z" fill="#7F0E36" fill-opacity="0.5"/>
<path d="M123.903 139.127C124.908 138.12 125.662 137.869 126.416 136.862C127.422 135.605 128.176 134.095 128.678 132.837C129.935 130.321 130.438 127.554 130.689 124.786C130.689 124.283 129.935 124.032 129.935 124.535C129.432 127.302 128.427 129.818 127.17 132.334C126.165 134.598 124.908 136.862 123.903 139.127C123.652 139.127 123.652 139.127 123.903 139.127Z" fill="#7F0E36" fill-opacity="0.5"/>
<path d="M125.411 138.12C126.165 139.881 127.17 141.391 128.678 142.397C129.684 143.152 132.197 144.913 133.453 143.404C133.705 143.152 133.705 142.901 133.705 142.901C133.202 141.643 131.443 141.643 130.438 140.888C128.93 140.133 127.924 138.875 127.17 137.366C126.416 136.862 124.908 137.366 125.411 138.12Z" fill="#7F0E36" fill-opacity="0.5"/>
<path d="M140.993 139.127C143.004 137.366 144.26 134.095 145.014 131.579C146.02 128.812 147.025 125.793 146.522 123.025C146.522 122.522 145.768 122.522 145.517 123.025C144.763 125.793 144.763 128.56 144.009 131.328C143.255 134.095 141.747 136.359 140.993 139.127C140.993 139.127 140.742 139.127 140.993 139.127Z" fill="#7F0E36" fill-opacity="0.5"/>
<path d="M148.03 120.509C148.784 119 149.538 117.239 150.292 115.478C150.544 114.975 149.79 114.471 149.538 114.975C148.784 116.736 148.03 118.245 147.528 120.006C147.276 120.761 148.03 120.761 148.03 120.509Z" fill="#7F0E36" fill-opacity="0.5"/>
<path d="M151.046 112.962C150.544 113.717 149.79 114.472 149.538 115.226C149.538 115.478 149.79 115.729 150.041 115.478C150.795 114.975 151.046 113.968 151.549 113.214C151.8 113.214 151.297 112.71 151.046 112.962Z" fill="#7F0E36" fill-opacity="0.5"/>
<path d="M134.961 153.216C134.459 154.725 133.956 156.486 133.453 157.996C132.951 159.254 132.448 160.512 132.699 161.769C132.699 162.021 133.202 162.021 133.202 161.769C133.956 160.763 133.956 159.505 134.207 158.247C134.459 156.738 134.71 154.977 134.961 153.216C134.961 152.964 135.213 152.964 134.961 153.216Z" fill="#7F0E36" fill-opacity="0.5"/>
<path d="M131.443 157.493C130.94 159.002 130.689 161.518 131.945 162.776C132.197 162.776 132.197 162.776 132.197 162.524C132.197 161.77 131.694 161.266 131.694 160.512C131.443 159.505 131.443 158.499 131.443 157.493C131.443 157.241 131.443 157.493 131.443 157.493Z" fill="#7F0E36" fill-opacity="0.5"/>
<path d="M130.94 154.474C130.94 155.732 130.94 156.989 130.94 158.247C130.94 159.505 130.689 161.015 130.438 162.273C130.438 163.028 131.192 163.279 131.694 162.524C132.699 160.008 132.951 156.989 131.946 154.474C131.694 153.97 130.94 154.222 130.94 154.474Z" fill="#7F0E36" fill-opacity="0.5"/>
<path d="M132.699 158.247C132.951 158.247 132.951 157.996 132.699 158.247C132.699 157.996 132.699 158.247 132.699 158.247Z" fill="#7F0E36" fill-opacity="0.5"/>
<path d="M130.94 156.486C130.186 158.499 130.689 161.518 130.689 163.531C130.689 164.537 131.945 164.789 132.448 164.034C133.202 162.524 133.956 161.015 134.459 159.254C134.961 157.744 135.715 156.235 135.213 154.725C135.213 154.474 134.71 154.222 134.459 154.474C133.453 155.48 132.951 156.989 132.699 158.247C132.197 159.757 131.443 161.518 130.94 163.028C131.443 163.028 132.197 163.279 132.699 163.279C132.699 161.015 132.951 157.996 131.694 155.983C131.443 156.235 130.94 156.235 130.94 156.486Z" fill="#7F0E36" fill-opacity="0.5"/>
<path d="M133.453 162.524C143.506 163.531 148.282 151.455 151.046 143.655C151.046 143.404 150.795 143.152 150.544 143.404C147.779 146.926 145.768 150.7 143.506 154.474C142.25 156.738 140.993 158.499 138.48 159.505C136.721 160.26 134.71 160.512 132.951 161.518C132.699 161.77 132.951 162.273 133.453 162.524Z" fill="#7F0E36" fill-opacity="0.5"/>
<path d="M152.554 142.397C151.549 143.655 150.292 145.165 149.538 146.674C149.538 146.926 149.79 147.178 149.79 146.926C151.046 145.668 151.8 144.159 152.805 142.649C153.057 142.397 152.805 142.146 152.554 142.397Z" fill="#7F0E36" fill-opacity="0.5"/>
<path d="M152.051 142.901C152.303 142.901 152.554 142.901 152.805 142.649V142.397C152.554 142.146 152.303 142.146 152.051 142.146C151.549 141.894 151.549 142.901 152.051 142.901Z" fill="#7F0E36" fill-opacity="0.5"/>
<path d="M153.057 142.397C152.051 145.416 151.549 148.435 150.795 151.454C150.292 154.222 149.538 156.738 149.538 159.505C149.538 159.757 150.041 160.008 150.292 159.757C151.549 156.989 152.051 154.222 152.554 151.203C153.057 148.184 153.811 145.416 154.062 142.397C154.313 141.894 153.308 141.894 153.057 142.397Z" fill="#7F0E36" fill-opacity="0.5"/>
<path d="M149.79 159.505C149.79 162.273 151.8 166.047 154.816 166.298C155.067 166.298 155.067 166.047 154.816 166.047C153.559 165.292 152.554 165.04 151.549 164.034C150.544 162.776 150.041 161.015 149.79 159.505C149.79 159.505 150.041 159.505 149.79 159.505Z" fill="#7F0E36" fill-opacity="0.5"/>
<path d="M153.057 165.04C147.779 166.298 147.276 160.512 148.03 157.493C148.533 155.731 149.538 153.97 150.292 152.209C151.298 149.693 152.554 147.178 153.559 144.662C153.559 144.41 153.308 144.159 153.057 144.41C150.795 148.687 145.768 155.983 147.025 161.266C147.779 164.285 150.544 166.55 153.559 165.543C153.559 165.543 153.559 165.04 153.057 165.04Z" fill="#7F0E36" fill-opacity="0.5"/>
<path d="M150.795 164.789C153.057 165.795 155.57 165.543 157.832 164.286C159.591 163.531 161.853 161.266 161.602 159.254C161.602 159.002 161.099 159.002 161.099 159.002C160.597 159.505 160.345 160.26 159.843 160.763C159.089 161.77 158.335 162.524 157.329 163.028C155.319 164.034 153.308 164.034 151.297 163.279C150.544 163.531 150.041 164.537 150.795 164.789Z" fill="#7F0E36" fill-opacity="0.5"/>
<path d="M161.602 159.002C162.356 156.738 163.361 154.474 164.366 152.209C165.12 150.197 166.377 148.184 166.628 146.171C166.628 145.92 166.126 145.668 165.874 145.92C164.366 147.429 163.612 149.945 162.858 151.958C162.104 154.222 161.853 156.235 161.602 159.002C161.602 159.002 161.35 159.002 161.602 159.002Z" fill="#7F0E36" fill-opacity="0.5"/>
<path d="M168.639 136.108C168.388 138.372 168.136 140.636 167.382 142.649C166.628 144.662 165.372 146.171 164.869 148.184C164.869 148.436 165.12 148.687 165.372 148.687C168.639 146.423 169.896 139.882 169.644 136.108C169.393 135.353 168.639 135.353 168.639 136.108Z" fill="#7F0E36" fill-opacity="0.5"/>
<path d="M166.377 146.926C169.393 144.662 172.157 142.146 175.425 140.133C178.189 138.372 181.205 136.863 183.718 134.347C183.97 134.095 183.718 133.844 183.467 133.844C180.2 135.101 177.435 137.114 174.922 139.378C171.906 141.643 168.89 143.907 166.126 146.674C165.874 146.674 166.126 147.178 166.377 146.926Z" fill="#7F0E36" fill-opacity="0.5"/>
<path d="M185.226 127.302C183.718 130.07 181.959 133.592 181.708 136.863C181.708 137.114 181.959 137.114 182.21 137.114C184.221 134.598 184.975 130.825 185.478 127.805C185.729 127.302 185.478 127.051 185.226 127.302Z" fill="#7F0E36" fill-opacity="0.5"/>
<path d="M180.451 136.36C181.456 138.624 184.221 139.379 186.232 140.636C188.242 141.894 190.504 143.404 193.017 143.404C193.52 143.404 193.771 142.901 193.52 142.398C192.263 140.385 189.499 139.379 187.488 138.372C185.478 137.366 183.216 135.605 180.702 135.856C180.451 136.108 180.451 136.36 180.451 136.36Z" fill="#7F0E36" fill-opacity="0.5"/>
<path d="M196.033 135.353C195.782 135.856 195.279 136.359 195.028 136.611C194.777 137.114 194.525 137.869 194.023 138.372C193.52 139.63 193.017 140.636 192.263 141.643C192.012 141.894 192.012 142.397 192.263 142.649C192.263 142.649 192.263 142.901 192.515 142.901C192.515 143.152 192.766 143.152 193.017 143.152H193.269C193.52 143.152 193.771 142.901 193.771 142.649C194.023 141.391 194.525 140.385 195.028 139.127C195.279 138.624 195.531 138.12 195.531 137.617C195.782 137.114 195.782 136.359 196.033 135.605C196.285 135.101 196.033 135.101 196.033 135.353Z" fill="#7F0E36" fill-opacity="0.5"/>
<path d="M193.52 143.152C197.541 157.744 207.343 173.091 221.417 179.632C230.716 183.909 240.518 187.18 249.817 191.205C260.121 195.734 269.671 201.772 279.976 206.552C280.73 206.803 281.232 206.049 280.73 205.294C265.902 193.973 247.806 187.18 230.465 181.393C220.412 177.871 211.867 173.343 205.584 164.286C200.808 157.493 198.044 149.945 193.52 143.152C193.52 142.901 193.771 142.901 193.52 143.152Z" fill="#7F0E36" fill-opacity="0.5"/>
<path d="M316.921 236.994C313.151 229.949 305.36 224.414 299.579 219.131C293.296 213.596 287.013 208.313 279.473 204.288C279.222 204.036 278.719 204.539 278.97 204.791C285.002 210.829 292.039 216.112 298.574 221.899C304.354 226.93 309.381 233.975 315.915 238" fill="#7F0E36" fill-opacity="0.5"/>
<path d="M201.814 138.875C204.578 144.913 208.851 151.203 212.369 156.989C215.134 161.518 218.401 165.543 222.422 169.066C230.716 176.361 240.769 180.89 251.073 185.167C251.325 185.167 251.576 184.915 251.325 184.664C241.523 178.877 231.219 173.342 223.428 164.789C215.888 156.486 209.856 146.423 201.814 138.875C201.814 138.875 202.065 138.624 201.814 138.875Z" fill="#7F0E36" fill-opacity="0.5"/>
<path d="M277.714 2.26437C273.944 4.52864 270.677 7.29608 267.41 9.81194C263.891 12.831 259.87 15.85 256.854 19.3722C256.603 19.6238 256.854 19.8754 257.105 19.6238C260.624 17.3595 263.64 14.0889 266.907 11.573C270.677 8.55401 274.447 6.03815 278.216 2.76754C278.468 2.51595 277.965 2.01278 277.714 2.26437Z" fill="#7F0E36" fill-opacity="0.5"/>
<path d="M275.955 3.27051C268.164 7.79905 260.372 12.8308 253.838 19.1204C253.587 19.372 253.838 19.6236 254.089 19.6236C261.629 14.5919 268.666 9.05698 275.955 3.77368C276.206 3.52209 275.955 3.27051 275.955 3.27051Z" fill="#7F0E36" fill-opacity="0.5"/>
<path d="M278.719 3.52222C271.682 8.80551 265.148 14.592 258.362 20.3785C258.111 20.63 258.613 21.1332 258.865 20.8816C265.65 15.0952 272.436 9.56027 278.719 3.52222C278.97 3.52222 278.97 3.52222 278.719 3.52222Z" fill="#7F0E36" fill-opacity="0.5"/>
<path d="M280.73 11.0698C272.939 15.85 265.399 21.3848 258.362 27.1713C258.111 27.4229 258.362 27.9261 258.864 27.6745C266.656 22.8943 273.944 17.1079 280.981 11.0698C281.232 11.3214 280.981 11.0698 280.73 11.0698Z" fill="#7F0E36" fill-opacity="0.5"/>
<path d="M295.809 29.1838C286.762 34.4671 276.96 40.5052 269.169 47.298C268.917 47.5496 269.169 47.8012 269.42 47.5496C278.719 42.7695 287.767 35.9767 296.061 29.1838C296.312 29.1838 296.061 28.9323 295.809 29.1838Z" fill="#7F0E36" fill-opacity="0.5"/>
<path d="M296.563 31.4482C287.767 36.2284 278.217 42.0148 271.179 49.3108C270.928 49.5624 271.179 49.814 271.431 49.814C280.227 44.0275 288.27 37.4863 296.563 31.4482C296.815 31.4482 296.815 31.4482 296.563 31.4482Z" fill="#7F0E36" fill-opacity="0.5"/>
<path d="M292.793 35.2219C286.008 38.9957 279.724 44.0274 274.195 49.5623C274.195 49.5623 274.195 49.8139 274.447 49.8139C280.73 45.2853 287.264 40.7568 293.045 35.7251C293.296 35.4735 293.045 35.2219 292.793 35.2219Z" fill="#7F0E36" fill-opacity="0.5"/>
<path d="M305.36 37.7378C294.553 43.0211 284.248 50.5687 274.195 57.1099C273.693 57.6131 274.195 58.3678 274.698 58.1162C285.002 51.575 296.061 45.7885 305.611 38.241C306.114 37.9894 305.611 37.7378 305.36 37.7378Z" fill="#7F0E36" fill-opacity="0.5"/>
<path d="M139.234 88.3066C143.506 92.5836 148.784 96.3574 154.816 97.8669C155.067 97.8669 155.067 97.6153 155.067 97.6153C149.79 94.3447 144.26 92.0804 139.234 88.3066C139.234 88.3066 139.234 88.0551 139.234 88.3066Z" fill="#7F0E36" fill-opacity="0.5"/>
<path d="M138.48 85.539C143.255 90.0676 149.538 95.0993 156.324 95.854C156.575 95.854 156.575 95.6025 156.324 95.3509C153.559 93.8414 150.292 93.0866 147.528 91.5771C144.26 89.816 141.496 87.8033 138.48 85.539C138.48 85.2874 138.48 85.2874 138.48 85.539Z" fill="#7F0E36" fill-opacity="0.5"/>
<path d="M139.234 83.2749C144.009 87.0487 149.538 91.0741 155.319 93.0867C155.57 93.0867 155.57 92.8352 155.57 92.5836C150.544 89.0614 144.512 86.5455 139.234 83.2749C139.234 83.2749 139.234 83.0233 139.234 83.2749Z" fill="#7F0E36" fill-opacity="0.5"/>
<path d="M127.924 125.038C126.919 126.799 125.914 128.56 125.16 130.321C124.657 131.831 123.652 133.843 124.154 135.353C124.154 135.605 124.406 135.605 124.657 135.353C125.662 134.095 125.914 132.586 126.416 131.076C127.17 129.063 127.924 127.051 128.93 125.29C128.93 124.786 128.176 124.535 127.924 125.038Z" fill="#7F0E36" fill-opacity="0.5"/>
<path d="M128.93 126.548C127.924 128.56 126.668 130.321 126.165 132.334C126.165 132.586 126.416 132.837 126.668 132.586C127.924 130.824 128.678 128.812 129.684 127.051C129.684 126.548 129.181 126.044 128.93 126.548Z" fill="#7F0E36" fill-opacity="0.5"/>
<path d="M145.014 119.503C145.014 121.516 145.014 123.277 145.266 125.29C145.266 125.541 145.517 125.541 145.768 125.29C146.522 123.277 146.271 121.264 145.517 119.503C145.517 119.252 145.014 119.252 145.014 119.503Z" fill="#7F0E36" fill-opacity="0.5"/>
<path d="M131.192 98.1185C130.438 98.1185 130.186 98.1185 129.432 98.6217C128.678 98.8733 128.176 99.3764 127.673 99.8796C126.668 100.634 125.411 101.641 125.411 102.899C125.411 103.15 125.662 103.15 125.662 103.15C126.668 102.899 127.422 101.641 128.427 101.138C128.93 100.634 129.432 100.383 129.935 99.8796C130.186 99.628 130.689 99.3764 130.94 99.3764C131.192 99.1249 131.192 98.8733 131.443 98.8733C131.694 98.1185 131.443 97.8669 131.192 98.1185Z" fill="#7F0E36" fill-opacity="0.5"/>
<path d="M135.715 91.8288C132.197 93.0867 129.181 96.1058 126.668 98.6216C124.154 101.137 120.887 104.157 119.631 107.427C119.379 107.93 120.133 108.182 120.385 107.93C123.149 105.414 125.16 102.144 127.673 99.628C130.186 97.1121 133.453 94.8478 135.967 92.0804C135.967 91.8288 135.967 91.5772 135.715 91.8288Z" fill="#7F0E36" fill-opacity="0.5"/>
<path d="M133.202 154.222C132.951 154.977 132.448 155.48 132.197 156.235C131.945 156.989 132.951 157.241 133.202 156.486C133.453 155.731 133.705 155.228 133.705 154.473C133.705 154.222 133.453 154.222 133.202 154.222C132.951 154.725 132.699 155.48 132.197 155.983C132.448 156.235 132.951 156.235 133.202 156.486C133.453 155.983 133.705 155.228 133.956 154.473C133.956 154.222 133.453 153.97 133.202 154.222Z" fill="#7F0E36" fill-opacity="0.5"/>
<path d="M151.046 150.951C150.041 152.209 149.538 153.719 149.036 155.48C148.784 156.738 148.282 158.499 148.784 160.008C148.784 160.26 149.287 160.26 149.287 160.008C150.041 158.751 149.79 157.241 150.041 155.983C150.544 153.97 151.046 152.461 151.046 150.951C151.298 150.7 151.549 150.951 151.046 150.951Z" fill="#7F0E36" fill-opacity="0.5"/>
<path d="M168.639 140.888C167.634 144.662 166.377 148.435 164.618 152.209C162.858 155.48 160.345 157.996 158.335 161.015C158.083 161.266 158.586 161.518 158.837 161.518C164.869 157.493 168.89 148.184 169.142 141.139C168.89 140.636 168.639 140.636 168.639 140.888Z" fill="#7F0E36" fill-opacity="0.5"/>
<path d="M168.136 112.962C165.623 117.239 162.607 121.013 159.843 125.29C159.843 125.541 160.094 125.541 160.094 125.541C163.864 122.271 166.628 117.742 168.388 113.213C168.639 112.962 168.136 112.71 168.136 112.962Z" fill="#7F0E36" fill-opacity="0.5"/>
<path d="M193.269 138.875C194.274 142.649 195.028 146.674 196.787 150.197H197.039C196.536 146.171 194.777 142.649 193.269 138.875C193.269 138.875 193.52 138.624 193.269 138.875Z" fill="#7F0E36" fill-opacity="0.5"/>
<path d="M196.033 133.843C195.531 140.133 196.285 147.429 198.798 153.216C198.798 153.467 199.301 153.216 199.049 152.964C198.044 146.423 196.787 140.385 196.285 133.843C196.536 133.592 196.033 133.592 196.033 133.843Z" fill="#7F0E36" fill-opacity="0.5"/>
<path d="M198.798 133.843C198.044 140.888 198.295 149.19 200.808 155.983C200.808 156.235 201.311 156.235 201.311 155.983C200.557 148.435 199.552 141.391 199.301 133.843C199.301 133.592 198.798 133.592 198.798 133.843Z" fill="#7F0E36" fill-opacity="0.5"/>
<path d="M201.814 136.863C201.814 145.416 201.562 154.977 204.076 163.279C204.076 163.531 204.578 163.531 204.578 163.279C204.076 154.474 202.316 145.668 202.065 136.863C202.065 136.611 201.814 136.611 201.814 136.863Z" fill="#7F0E36" fill-opacity="0.5"/>
<path d="M205.584 145.92C205.835 152.209 205.835 158.247 206.589 164.537C206.589 164.789 207.092 164.789 207.092 164.537C207.092 158.247 206.589 152.209 206.338 145.92C206.338 145.668 205.584 145.668 205.584 145.92Z" fill="#7F0E36" fill-opacity="0.5"/>
<path d="M208.348 150.951C208.348 152.461 210.107 168.814 209.856 168.814C210.107 168.814 210.107 168.311 209.856 168.311C209.856 168.311 209.856 168.311 209.605 168.311C209.354 168.311 209.354 168.311 209.354 168.562C209.354 168.814 209.102 169.066 209.354 169.317C209.605 169.569 209.856 169.569 210.107 169.317C211.615 168.059 210.359 164.537 210.107 163.028C209.605 159.002 209.102 154.977 208.6 150.951C208.6 150.951 208.348 150.951 208.348 150.951Z" fill="#7F0E36" fill-opacity="0.5"/>
<path d="M211.113 155.228C211.615 161.015 211.615 167.304 213.123 173.091C213.123 173.342 213.626 173.342 213.626 173.091C213.877 167.304 212.369 161.015 211.615 155.228C211.364 154.977 211.113 154.977 211.113 155.228Z" fill="#7F0E36" fill-opacity="0.5"/>
<path d="M214.38 158.75C214.631 163.279 214.38 168.562 215.888 173.091C215.888 173.342 216.391 173.342 216.391 173.091C216.642 168.562 215.637 163.279 214.631 158.75C214.631 158.75 214.38 158.75 214.38 158.75Z" fill="#7F0E36" fill-opacity="0.5"/>
<path d="M217.145 163.028C217.647 167.556 217.899 172.839 219.407 177.368C219.407 177.62 219.909 177.62 219.909 177.368C219.909 172.588 218.653 167.556 217.647 163.028C217.647 162.776 217.145 162.776 217.145 163.028Z" fill="#7F0E36" fill-opacity="0.5"/>
<path d="M219.406 167.556C219.658 169.317 219.909 171.33 220.412 173.343H220.663C220.412 171.33 220.16 169.569 219.909 167.556C219.658 167.305 219.406 167.305 219.406 167.556Z" fill="#7F0E36" fill-opacity="0.5"/>
<path d="M203.573 141.14C204.327 144.41 206.589 147.429 208.097 150.197C209.856 153.216 211.113 156.486 213.626 159.002C213.877 159.254 214.129 159.002 214.129 158.751C213.123 155.48 211.113 152.461 209.354 149.694C207.846 146.675 206.338 143.404 203.573 141.14C203.573 141.14 203.824 140.888 203.573 141.14Z" fill="#7F0E36" fill-opacity="0.5"/>
<path d="M201.562 141.894C203.322 144.662 205.584 147.178 207.343 150.197C209.102 152.964 210.359 156.235 212.118 159.002C212.369 159.505 212.872 159.254 212.872 158.751C212.369 155.228 210.107 151.958 208.097 148.939C206.589 146.423 204.578 143.655 201.562 141.894C201.562 141.894 201.814 141.643 201.562 141.894Z" fill="#7F0E36" fill-opacity="0.5"/>
<path d="M201.814 142.398C201.562 141.894 201.06 141.643 200.557 141.894C199.803 142.398 200.306 143.152 200.557 143.907C201.562 145.92 203.322 147.681 204.83 149.442C206.338 151.455 207.846 153.719 209.856 155.228C210.107 155.48 210.359 154.977 210.359 154.725C208.348 150.197 204.076 146.926 201.311 142.649C201.562 142.901 202.065 142.649 201.814 142.398Z" fill="#7F0E36" fill-opacity="0.5"/>
<path d="M189.499 95.0994C190.253 95.8542 191.007 96.609 191.761 97.1121C192.263 97.6153 193.017 98.3701 193.771 98.6216C194.023 98.6216 194.023 98.6216 194.023 98.3701C193.771 97.6153 192.766 97.1121 192.012 96.609C191.258 95.8542 190.504 95.351 189.499 94.8479C189.499 94.3447 189.248 94.8479 189.499 95.0994Z" fill="#7F0E36" fill-opacity="0.5"/>
<path d="M136.972 86.5454C133.453 89.0613 130.438 92.5835 127.673 96.1057C125.16 99.1247 122.144 102.395 120.887 106.169C120.887 106.421 121.139 106.672 121.39 106.421C124.154 103.402 126.165 99.3763 128.93 96.3572C131.694 93.0866 134.71 90.0676 137.475 87.0486C137.223 86.797 137.223 86.5454 136.972 86.5454Z" fill="#7F0E36" fill-opacity="0.5"/>
<path d="M143.255 102.395C142.25 103.905 141.245 105.163 140.491 106.672C140.491 106.672 140.491 106.924 140.742 106.672C141.747 105.414 142.501 103.905 143.255 102.395C143.255 102.144 143.506 102.395 143.255 102.395Z" fill="#7F0E36" fill-opacity="0.5"/>
<path d="M144.763 101.641C143.506 103.15 141.998 104.408 140.742 105.918C139.485 107.176 137.977 108.182 136.972 109.691C136.972 109.943 136.972 109.943 137.223 109.943C138.731 109.44 140.239 107.93 141.496 106.672C143.004 105.414 144.26 103.653 145.266 102.144C145.517 101.641 145.014 101.389 144.763 101.641Z" fill="#7F0E36" fill-opacity="0.5"/>
<path d="M143.255 101.641C140.993 105.163 138.229 107.679 134.71 110.195C134.459 110.446 134.71 110.949 134.961 110.698C138.731 108.937 141.747 105.414 143.506 101.892C143.758 101.641 143.506 101.641 143.255 101.641Z" fill="#7F0E36" fill-opacity="0.5"/>
<path d="M150.795 108.433C145.517 113.465 140.491 117.49 134.207 121.013C133.956 121.013 134.207 121.264 134.459 121.264C140.742 118.497 146.774 113.968 150.795 108.433C150.795 108.433 151.046 108.433 150.795 108.433Z" fill="#7F0E36" fill-opacity="0.5"/>
<path d="M149.036 111.704C143.758 115.729 137.977 119.755 132.699 124.032C132.699 124.032 132.699 124.283 132.951 124.283C138.731 121.013 144.26 116.233 149.036 111.704C149.287 111.704 149.538 111.704 149.036 111.704Z" fill="#7F0E36" fill-opacity="0.5"/>
<path d="M144.26 119C140.491 122.019 136.469 125.038 132.699 128.057C132.699 128.057 132.699 128.309 132.699 128.057C136.721 125.29 140.491 122.019 144.26 119Z" fill="#7F0E36" fill-opacity="0.5"/>
<path d="M145.014 121.768C143.758 123.025 142.25 124.283 140.993 125.541C139.737 126.799 138.229 128.057 136.972 129.315C136.721 129.567 136.972 129.818 137.223 129.818C138.731 128.812 139.737 127.554 140.993 126.296C142.501 125.038 143.758 123.529 145.014 122.271C145.517 122.019 145.014 121.516 145.014 121.768Z" fill="#7F0E36" fill-opacity="0.5"/>
<path d="M144.763 125.038C141.747 127.302 138.229 129.567 135.715 132.586C135.464 132.837 135.715 133.089 135.967 133.089C139.234 131.328 142.25 128.309 145.014 125.793C145.266 125.29 145.014 124.787 144.763 125.038Z" fill="#7F0E36" fill-opacity="0.5"/>
<path d="M311.894 229.698C303.852 218.628 291.034 209.822 279.473 203.03C279.222 202.778 278.97 203.281 279.222 203.281C291.034 211.332 300.584 220.892 311.391 230.201" fill="#7F0E36" fill-opacity="0.5"/>
<path d="M312.899 227.433C312.899 227.433 313.151 227.433 312.899 227.433C307.119 220.137 299.83 213.848 292.542 208.061C292.542 208.061 292.291 208.061 292.291 208.313C299.328 214.351 305.862 221.144 312.899 227.433Z" fill="#7F0E36" fill-opacity="0.5"/>
<path d="M316.167 229.194C309.381 219.634 300.584 211.583 291.034 205.042C290.783 205.042 290.783 205.294 290.783 205.294C300.082 212.59 307.873 220.892 315.664 229.446" fill="#7F0E36" fill-opacity="0.5"/>
<path d="M319.685 232.214C317.926 228.691 314.407 225.672 311.643 222.905C311.391 222.653 311.14 222.905 311.391 223.157C312.899 224.666 314.156 226.176 315.413 227.685" fill="#7F0E36" fill-opacity="0.5"/>
<path d="M189.248 93.0867C191.761 92.0804 194.023 90.5708 196.033 89.0613C198.044 87.5518 200.557 85.5391 201.06 82.7717C201.06 82.5201 200.808 82.0169 200.306 82.2685C198.295 83.5264 197.039 85.7907 195.531 87.3002C193.52 89.3129 191.258 90.8224 188.996 92.0804C188.494 92.5835 188.745 93.3383 189.248 93.0867Z" fill="#7F0E36" fill-opacity="0.5"/>
<path d="M202.568 78.9978C200.557 82.2684 197.541 85.0359 195.531 88.5581C195.531 88.8096 195.782 88.8096 195.782 88.8096C198.798 86.2938 200.808 82.2684 202.568 78.9978C202.568 78.7462 202.568 78.9978 202.568 78.9978Z" fill="#7F0E36" fill-opacity="0.5"/>
<path d="M199.552 88.3066C196.536 91.3257 193.52 94.0931 190.755 97.3637C190.504 97.6153 190.755 97.8669 191.258 97.8669C194.274 94.8479 197.039 91.5773 199.552 88.3066C199.803 88.0551 199.803 88.3066 199.552 88.3066Z" fill="#7F0E36" fill-opacity="0.5"/>
<path d="M197.541 88.3066C196.033 89.5646 194.777 90.5709 193.269 91.8288C192.263 92.8352 190.504 93.8415 190.253 95.351C190.253 95.6026 190.253 95.6026 190.504 95.6026C191.761 95.0995 192.766 93.3384 193.771 92.332C195.028 91.0741 196.285 89.5646 197.541 88.3066C197.541 88.0551 197.793 88.3066 197.541 88.3066Z" fill="#7F0E36" fill-opacity="0.5"/>
<path d="M152.051 108.685C156.073 110.698 160.345 112.459 164.618 113.465C164.869 113.465 165.12 113.214 164.869 112.962C160.848 111.201 156.575 109.691 152.051 108.685Z" fill="#7F0E36" fill-opacity="0.5"/>
<path d="M151.298 106.924C153.559 109.691 157.078 111.956 160.597 112.71C160.848 112.71 160.848 112.459 160.848 112.459C157.329 110.949 154.565 109.188 151.8 106.672C151.298 106.421 151.046 106.672 151.298 106.924Z" fill="#7F0E36" fill-opacity="0.5"/>
<path d="M151.298 108.433C155.821 111.201 160.597 113.968 165.874 115.981C166.126 115.981 166.126 115.729 165.874 115.729C161.35 112.71 156.073 110.446 151.298 108.433C151.046 108.433 151.046 108.182 151.298 108.433Z" fill="#7F0E36" fill-opacity="0.5"/>
<path d="M152.554 109.943C155.821 112.71 161.099 114.975 165.372 115.729C165.623 115.729 165.874 115.478 165.623 115.226C163.361 114.22 161.099 113.213 158.837 112.459C156.827 111.452 154.816 110.194 152.554 109.943C152.554 109.691 152.554 109.691 152.554 109.943Z" fill="#7F0E36" fill-opacity="0.5"/>
<path d="M156.324 110.446C159.591 111.956 162.858 113.465 166.377 114.723C166.377 114.723 166.628 114.471 166.377 114.471C163.11 112.962 159.843 111.452 156.324 110.194C156.324 109.943 156.073 110.446 156.324 110.446Z" fill="#7F0E36" fill-opacity="0.5"/>
<path d="M152.805 110.446C156.575 113.214 161.099 115.729 165.623 116.987C165.874 116.987 165.874 116.736 165.623 116.736C161.602 114.472 157.078 112.459 152.805 110.195C152.805 109.943 152.554 110.195 152.805 110.446Z" fill="#7F0E36" fill-opacity="0.5"/>
<path d="M151.297 110.698C155.319 112.962 159.34 115.478 163.612 117.491C163.864 117.491 163.864 117.239 163.612 117.239C159.591 114.723 155.319 112.71 151.297 110.698C151.046 110.698 151.297 110.446 151.297 110.698Z" fill="#7F0E36" fill-opacity="0.5"/>
<path d="M151.297 112.459C155.821 114.723 159.843 116.987 164.115 119.503C164.115 119.503 164.366 119.503 164.115 119.252C160.597 116.484 156.073 113.968 151.297 112.459C151.046 112.459 151.297 112.207 151.297 112.459Z" fill="#7F0E36" fill-opacity="0.5"/>
<path d="M151.297 113.968C154.565 116.736 158.586 119.252 162.858 120.509C163.11 120.509 163.11 120.258 162.858 120.258C158.837 118.245 155.067 116.233 151.297 113.968C151.046 113.968 151.297 113.717 151.297 113.968Z" fill="#7F0E36" fill-opacity="0.5"/>
<path d="M149.79 115.729C153.559 118.245 157.832 121.013 162.104 122.522C162.356 122.522 162.356 122.271 162.104 122.271C158.586 119.503 154.062 117.491 149.79 115.729C149.538 115.478 149.79 115.478 149.79 115.729Z" fill="#7F0E36" fill-opacity="0.5"/>
<path d="M149.036 117.742C152.805 120.006 156.575 122.271 160.597 123.78C160.848 123.78 160.848 123.529 160.597 123.529C157.078 121.264 153.057 119.503 149.036 117.742C148.784 117.742 149.036 117.491 149.036 117.742Z" fill="#7F0E36" fill-opacity="0.5"/>
<path d="M146.271 120.509C149.79 122.271 153.057 125.038 156.827 126.547C157.078 126.547 157.078 126.296 157.078 126.296C154.062 123.78 150.041 122.019 146.522 120.258C146.271 120.258 146.02 120.509 146.271 120.509Z" fill="#7F0E36" fill-opacity="0.5"/>
<path d="M147.025 122.774C148.282 123.529 149.79 124.283 151.046 125.29C152.303 126.044 153.559 127.051 154.816 127.805C155.067 127.805 155.067 127.554 155.067 127.554C153.057 125.29 150.041 123.78 147.276 122.522C147.025 122.271 146.774 122.522 147.025 122.774Z" fill="#7F0E36" fill-opacity="0.5"/>
<path d="M164.115 113.717C168.388 115.226 173.414 116.736 177.687 116.736C177.938 116.736 177.938 116.233 177.687 116.233C173.665 114.472 168.388 113.717 163.864 113.214C163.864 113.214 163.864 113.465 164.115 113.717Z" fill="#7F0E36" fill-opacity="0.5"/>
<path d="M163.361 114.975C165.12 115.478 166.88 115.981 168.639 116.233C170.147 116.484 171.655 117.239 173.414 116.987C173.665 116.987 173.665 116.736 173.665 116.484C172.157 115.729 170.65 115.478 169.142 115.226C167.382 114.723 165.623 114.472 163.864 114.22C163.11 114.22 162.858 114.975 163.361 114.975Z" fill="#7F0E36" fill-opacity="0.5"/>
<path d="M164.869 114.723C166.126 114.975 167.131 115.226 168.388 115.729C169.393 115.981 170.398 116.736 171.403 116.987C171.655 116.987 171.655 116.736 171.655 116.736C170.398 114.975 167.131 114.472 165.12 114.22C164.618 114.22 164.618 114.723 164.869 114.723Z" fill="#7F0E36" fill-opacity="0.5"/>
<path d="M165.372 115.478C166.377 116.484 167.382 117.491 168.639 118.245C168.89 117.994 168.89 117.742 169.142 117.491C167.885 116.736 166.628 116.233 165.12 116.233C164.869 116.233 164.869 116.484 164.869 116.736C165.623 117.742 166.377 118.748 167.131 119.755C167.131 119.503 167.382 119.503 167.382 119.252C166.628 119.252 165.874 119.252 165.12 119.252C164.618 119.252 164.618 120.006 165.12 120.006C167.131 120.51 168.89 119.755 169.896 117.994C170.147 117.491 169.644 116.987 169.142 117.239C166.88 118.748 164.869 120.258 162.858 122.019C162.356 122.522 163.11 123.277 163.612 123.025C165.874 121.516 168.388 120.006 170.398 117.742C170.65 117.491 170.398 116.987 169.896 117.239C167.382 118.245 165.12 120.258 163.11 122.019C163.361 122.271 163.612 122.522 163.864 123.025C165.623 121.264 167.634 119.755 169.896 118.245C169.644 117.994 169.393 117.742 169.142 117.491C168.388 119 166.88 119.503 165.372 119.252C165.372 119.503 165.372 119.755 165.372 120.006C166.126 120.006 166.88 120.006 167.634 120.006C167.885 120.006 168.136 119.755 167.885 119.503C167.131 118.497 166.377 117.491 165.623 116.484C165.623 116.736 165.372 116.736 165.372 116.987C166.628 116.987 167.634 117.491 168.639 118.497C169.142 118.748 169.644 118.245 169.142 117.994C168.136 116.987 166.88 116.233 165.623 115.226C165.372 114.975 165.12 115.226 165.372 115.478Z" fill="#7F0E36" fill-opacity="0.5"/>
<path d="M181.205 134.095C183.216 134.85 185.478 135.605 187.237 136.862C188.996 137.869 190.504 139.127 192.263 139.882C192.515 139.882 192.766 139.63 192.515 139.63C189.75 136.611 184.724 134.85 180.954 133.843C181.205 133.592 180.954 133.843 181.205 134.095Z" fill="#7F0E36" fill-opacity="0.5"/>
<path d="M184.724 132.586C186.483 134.095 188.494 135.102 190.504 136.611C192.263 137.869 194.023 139.63 196.033 140.636C196.285 140.888 196.536 140.385 196.285 140.385C193.52 137.114 188.996 133.844 184.975 132.082C184.724 131.831 184.472 132.334 184.724 132.586Z" fill="#7F0E36" fill-opacity="0.5"/>
<path d="M185.478 129.063C187.488 130.321 189.248 131.831 191.007 133.34C192.515 134.85 193.771 136.359 195.531 137.617C195.782 137.617 195.782 137.617 195.782 137.366C193.269 133.844 188.996 131.076 185.478 129.063C185.478 128.812 185.478 128.812 185.478 129.063Z" fill="#7F0E36" fill-opacity="0.5"/>
<path d="M184.221 123.025C186.483 124.786 188.745 126.296 191.007 128.057C192.766 129.566 194.274 131.328 196.033 132.837C196.285 133.089 196.536 132.586 196.536 132.334C194.274 128.309 188.745 124.283 184.472 122.774C183.97 122.774 183.97 123.025 184.221 123.025Z" fill="#7F0E36" fill-opacity="0.5"/>
<path d="M184.724 124.535C186.734 126.044 188.745 127.554 190.756 129.315C192.515 131.076 194.274 133.089 196.033 134.598C196.285 134.85 196.536 134.598 196.285 134.347C195.028 132.082 193.017 130.321 191.258 128.56C189.248 126.799 187.237 125.29 184.975 124.032C184.724 124.283 184.472 124.535 184.724 124.535Z" fill="#7F0E36" fill-opacity="0.5"/>
<path d="M184.472 125.541C186.483 127.051 188.242 128.56 190.001 130.321C191.761 132.082 193.269 133.843 195.279 135.353C195.279 135.353 195.531 135.353 195.531 135.101C193.017 131.076 188.494 128.057 184.724 125.29L184.472 125.541Z" fill="#7F0E36" fill-opacity="0.5"/>
<path d="M185.226 127.805C186.483 129.063 187.74 130.07 188.996 131.328C190.253 132.586 191.258 133.843 192.515 134.85C192.766 135.101 193.017 134.85 192.766 134.598C191.258 131.831 188.242 129.063 185.478 127.302C185.226 127.051 184.975 127.554 185.226 127.805Z" fill="#7F0E36" fill-opacity="0.5"/>
<path d="M186.986 129.567C187.991 131.076 189.248 132.586 190.504 133.844C190.755 134.095 191.007 133.844 190.755 133.592C189.75 132.334 188.494 130.573 186.986 129.567C186.734 129.567 186.986 129.567 186.986 129.567Z" fill="#7F0E36" fill-opacity="0.5"/>
<path d="M225.187 143.907C226.192 144.41 227.198 144.913 227.952 145.416C227.952 145.416 228.203 145.416 227.952 145.165C227.449 144.662 226.444 144.159 225.187 143.907C225.187 143.907 225.187 143.655 225.187 143.907Z" fill="#7F0E36" fill-opacity="0.5"/>
<path d="M240.266 84.0296C243.534 87.5518 245.796 91.5772 247.304 96.1057C247.304 96.3573 247.555 96.1057 247.555 96.1057C246.298 91.3256 244.036 87.3002 240.769 83.778C240.266 83.5265 240.015 83.778 240.266 84.0296Z" fill="#7F0E36" fill-opacity="0.5"/>
<path d="M244.79 88.8098C247.555 93.5899 250.068 98.6217 253.084 103.15C253.084 103.15 253.335 103.15 253.084 103.15C250.319 98.3701 247.555 93.5899 244.79 88.8098Z" fill="#7F0E36" fill-opacity="0.5"/>
<path d="M246.047 92.5835C250.068 100.131 253.838 108.182 258.613 115.478C258.613 115.729 258.864 115.478 258.864 115.478C255.346 107.679 250.571 100.131 246.298 92.5835C246.298 92.0803 246.047 92.3319 246.047 92.5835Z" fill="#7F0E36" fill-opacity="0.5"/>
<path d="M189.75 65.6638C191.761 64.1543 186.986 65.4122 186.986 65.4122C185.478 65.6638 183.97 66.167 182.462 66.4186C178.943 67.1733 175.425 67.6765 171.906 68.9344C171.655 68.9344 171.655 69.4376 171.906 69.4376C178.441 68.9344 185.478 67.1733 191.761 65.1606C192.012 65.1606 192.012 64.6575 191.509 64.6575C190.253 64.9091 191.007 64.6575 189.75 65.6638C189.75 65.6638 189.75 65.4122 189.75 65.6638Z" fill="#7F0E36" fill-opacity="0.5"/>
<path d="M188.242 66.167C183.467 67.4249 178.441 68.4312 173.917 70.4439C173.665 70.4439 173.917 70.9471 174.168 70.9471C178.943 70.1923 183.718 68.1796 188.494 66.6701C188.745 66.4185 188.494 65.9154 188.242 66.167Z" fill="#7F0E36" fill-opacity="0.5"/>
<path d="M190.504 66.4187C182.21 66.9219 173.163 67.425 165.372 70.1925C165.12 70.1925 165.12 70.6957 165.372 70.6957C173.917 69.9409 182.21 67.9282 190.504 66.4187C190.756 66.4187 190.756 66.6703 190.504 66.4187Z" fill="#7F0E36" fill-opacity="0.5"/>
<path d="M181.959 66.167C175.173 67.6765 168.136 67.9281 161.35 69.186C161.099 69.186 161.099 69.6892 161.35 69.6892C168.136 70.1924 175.676 68.4313 181.959 66.167C182.21 66.167 182.21 66.4186 181.959 66.167Z" fill="#7F0E36" fill-opacity="0.5"/>
<path d="M164.115 68.9345C158.335 70.1925 151.297 72.7083 147.779 77.74C147.528 77.9916 148.03 78.2432 148.03 77.9916C150.544 76.7337 152.805 74.721 155.319 73.4631C158.083 71.9536 161.099 70.4441 164.115 69.4377C164.618 69.1861 164.366 68.6829 164.115 68.9345Z" fill="#7F0E36" fill-opacity="0.5"/>
</g>
<defs>
<clipPath id="clip0_3_4964">
<rect width="332" height="238" fill="white"/>
</clipPath>
</defs>
</svg>
