<svg width="31" height="31" viewBox="0 0 31 31" fill="none" xmlns="http://www.w3.org/2000/svg">
<path d="M23.3017 31H7.69826C3.43525 31 0 27.5234 0 23.3017V7.69826C0 3.43525 3.43525 0 7.69826 0H23.3017C27.5648 0 31 3.43525 31 7.69826V23.3017C31 27.5234 27.5234 31 23.3017 31ZM7.69826 1.65554C4.34579 1.65554 1.65554 4.34579 1.65554 7.69826V23.3017C1.65554 26.6128 4.34579 29.3445 7.69826 29.3445H23.3017C26.6128 29.3445 29.3445 26.6542 29.3445 23.3017V7.69826C29.3445 4.38718 26.6542 1.65554 23.3017 1.65554H7.69826Z" fill="white"/>
<path d="M24.0467 8.93993C25.2811 8.93993 26.2817 7.9393 26.2817 6.70495C26.2817 5.47061 25.2811 4.46997 24.0467 4.46997C22.8124 4.46997 21.8117 5.47061 21.8117 6.70495C21.8117 7.9393 22.8124 8.93993 24.0467 8.93993Z" fill="white"/>
<path d="M15.4497 24.0467C10.9798 24.0467 7.29621 20.4045 7.29621 15.8932C7.29621 11.3818 10.9798 7.78101 15.4497 7.78101C19.9197 7.78101 23.6033 11.4232 23.6033 15.9345C23.6033 20.4459 19.9611 24.0467 15.4497 24.0467ZM15.4497 9.27099C11.8076 9.27099 8.82758 12.251 8.82758 15.8932C8.82758 19.5353 11.8076 22.5153 15.4497 22.5153C19.0919 22.5153 22.0719 19.5353 22.0719 15.8932C22.0719 12.251 19.1333 9.27099 15.4497 9.27099Z" fill="white"/>
</svg>
