<svg width="31" height="31" viewBox="0 0 31 31" fill="none" xmlns="http://www.w3.org/2000/svg">
<path d="M23.3017 31H7.69826C3.43525 31 0 27.5234 0 23.3017V7.69826C0 3.43525 3.43525 0 7.69826 0H23.3017C27.5648 0 31 3.43525 31 7.69826V23.3017C31 27.5234 27.5234 31 23.3017 31ZM7.69826 1.65554C4.34579 1.65554 1.65554 4.34579 1.65554 7.69826V23.3017C1.65554 26.6128 4.34579 29.3445 7.69826 29.3445H23.3017C26.6128 29.3445 29.3445 26.6542 29.3445 23.3017V7.69826C29.3445 4.38718 26.6542 1.65554 23.3017 1.65554H7.69826Z" fill="white"/>
<path d="M14.8171 30.1721V16.5967H12.2924V14.4031H14.8171V13.6581C14.8171 11.4645 15.3551 9.43648 16.8865 8.15343C18.1282 7.11872 19.7423 6.70483 21.2737 6.70483C22.4326 6.70483 23.4259 6.95316 24.0467 7.16011L23.5915 9.3537C23.0948 9.14676 22.4326 8.9812 21.522 8.9812C18.749 8.9812 18.0454 11.1334 18.0454 13.5339V14.3617H22.3912V16.5553H18.0454V30.1307H14.8171V30.1721Z" fill="white"/>
</svg>
